<svg width="52" height="52" viewBox="0 0 52 52" fill="none" xmlns="http://www.w3.org/2000/svg">
<circle cx="26" cy="26" r="26" fill="#0084CA"/>
<path d="M9.888 29.45V23.15H11.386V29.45H9.888ZM7.41 27V25.6H13.864V27H7.41Z" fill="white"/>
<path d="M23.4002 37.7C24.4772 37.7 25.3502 36.789 25.3502 35.6652C25.3502 34.5414 24.4772 33.6304 23.4002 33.6304C22.3232 33.6304 21.4502 34.5414 21.4502 35.6652C21.4502 36.789 22.3232 37.7 23.4002 37.7Z" fill="white"/>
<path d="M34.1263 37.7002C35.2032 37.7002 36.0763 36.7891 36.0763 35.6654C36.0763 34.5416 35.2032 33.6306 34.1263 33.6306C33.0493 33.6306 32.1763 34.5416 32.1763 35.6654C32.1763 36.7891 33.0493 37.7002 34.1263 37.7002Z" fill="white"/>
<path d="M38.8166 16.4843C38.7454 16.3946 38.6558 16.3221 38.554 16.2721C38.4523 16.2221 38.341 16.1958 38.2281 16.195H22.3171L22.8138 17.7584H37.227L35.1865 27.1386H23.7232L20.2307 15.8276C20.193 15.7076 20.1274 15.5987 20.0395 15.5102C19.9517 15.4218 19.8443 15.3563 19.7264 15.3195L16.5931 14.3346C16.4967 14.3043 16.3955 14.2938 16.2951 14.3035C16.1948 14.3132 16.0973 14.3431 16.0083 14.3914C15.8284 14.4888 15.6937 14.6554 15.634 14.8544C15.5742 15.0535 15.5941 15.2686 15.6894 15.4526C15.7847 15.6366 15.9476 15.7743 16.1422 15.8355L18.8857 16.6953L22.3935 28.0297L21.1402 29.0772L21.0408 29.1788C20.7308 29.5442 20.5551 30.0088 20.5439 30.4925C20.5328 30.9762 20.6869 31.4487 20.9797 31.8287C21.188 32.0878 21.4527 32.2935 21.7526 32.4292C22.0525 32.5649 22.3793 32.627 22.7068 32.6104H35.4616C35.6643 32.6104 35.8587 32.5281 36.002 32.3815C36.1453 32.2349 36.2258 32.036 36.2258 31.8287C36.2258 31.6214 36.1453 31.4226 36.002 31.276C35.8587 31.1294 35.6643 31.047 35.4616 31.047H22.5845C22.4965 31.044 22.4108 31.0177 22.3356 30.9709C22.2604 30.924 22.1983 30.8581 22.1553 30.7795C22.1122 30.7009 22.0898 30.6123 22.09 30.5223C22.0902 30.4322 22.1131 30.3437 22.1566 30.2654L23.9983 28.702H35.7979C35.9745 28.7064 36.1472 28.6481 36.2866 28.5369C36.4259 28.4257 36.5233 28.2686 36.5621 28.0923L38.9847 17.1487C39.0079 17.0321 39.0049 16.9117 38.9757 16.7966C38.9466 16.6814 38.8921 16.5746 38.8166 16.4843Z" fill="white"/>
</svg>
