<svg width="23" height="23" viewBox="0 0 23 23" fill="none" xmlns="http://www.w3.org/2000/svg">
<path d="M5.8322 22.8855C4.46438 22.8234 3.72134 22.5961 3.22712 22.4036C2.57226 22.149 2.10539 21.8459 1.6139 21.3558C1.12242 20.8657 0.81823 20.3995 0.564627 19.7456C0.371861 19.2521 0.144233 18.5102 0.0820281 17.1443C0.0136714 15.6679 0 15.2249 0 11.4844C0 7.74385 0.0150385 7.30154 0.0813445 5.82376C0.143549 4.45792 0.372544 3.71732 0.563943 3.22245C0.818914 2.56854 1.1231 2.10234 1.61322 1.61089C2.10402 1.12079 2.5709 0.816364 3.22644 0.563127C3.72066 0.37064 4.4637 0.143341 5.83152 0.0812268C7.31076 0.0136516 7.75507 0 11.4997 0C15.2456 0 15.6886 0.0150167 17.1685 0.0812268C18.5363 0.143341 19.278 0.372005 19.7736 0.563127C20.4284 0.816364 20.8953 1.12079 21.3868 1.61089C21.8783 2.10098 22.1811 2.56786 22.4361 3.22177C22.6288 3.71527 22.8565 4.45724 22.9187 5.82308C22.9863 7.30086 23 7.74317 23 11.4837C23 15.2229 22.9863 15.6665 22.9187 17.1443C22.8565 18.5102 22.6275 19.2521 22.4361 19.7456C22.1811 20.3995 21.8776 20.8657 21.3868 21.3558C20.896 21.8459 20.4284 22.149 19.7736 22.4036C19.2793 22.5961 18.5363 22.8234 17.1685 22.8855C15.6899 22.9531 15.2456 22.9667 11.4997 22.9667C7.75507 22.9667 7.31076 22.9537 5.8322 22.8855Z" fill="white"/>
<g clip-path="url(#clip0_1774_71)">
<path d="M12.0297 23V14.0065H9.58325V10.7684H12.0297V8.0026C12.0297 5.82924 13.4748 3.83337 16.8046 3.83337C18.1528 3.83337 19.1497 3.95901 19.1497 3.95901L19.0711 6.98286C19.0711 6.98286 18.0544 6.97324 16.945 6.97324C15.7442 6.97324 15.5518 7.51115 15.5518 8.40395V10.7684H19.1666L19.0093 14.0065H15.5518V23H12.0297Z" fill="#2A3B45"/>
</g>
<defs>
<clipPath id="clip0_1774_71">
<rect width="9.58333" height="19.1667" fill="white" transform="translate(9.58325 3.83337)"/>
</clipPath>
</defs>
</svg>
