<svg width="13" height="14" viewBox="0 0 13 14" fill="none" xmlns="http://www.w3.org/2000/svg">
<path d="M7.4158 7L11.7158 2.71C11.9041 2.5217 12.0099 2.2663 12.0099 2C12.0099 1.7337 11.9041 1.47831 11.7158 1.29C11.5275 1.1017 11.2721 0.995911 11.0058 0.995911C10.7395 0.995911 10.4841 1.1017 10.2958 1.29L6.0058 5.59L1.7158 1.29C1.52749 1.1017 1.2721 0.995911 1.0058 0.995911C0.739497 0.995911 0.484102 1.1017 0.295798 1.29C0.107495 1.47831 0.0017066 1.7337 0.0017066 2C0.0017066 2.2663 0.107495 2.5217 0.295798 2.71L4.5958 7L0.295798 11.29C0.20207 11.383 0.127676 11.4936 0.0769072 11.6154C0.0261385 11.7373 0 11.868 0 12C0 12.132 0.0261385 12.2627 0.0769072 12.3846C0.127676 12.5064 0.20207 12.617 0.295798 12.71C0.388761 12.8037 0.499362 12.8781 0.621222 12.9289C0.743081 12.9797 0.873786 13.0058 1.0058 13.0058C1.13781 13.0058 1.26852 12.9797 1.39038 12.9289C1.51223 12.8781 1.62284 12.8037 1.7158 12.71L6.0058 8.41L10.2958 12.71C10.3888 12.8037 10.4994 12.8781 10.6212 12.9289C10.7431 12.9797 10.8738 13.0058 11.0058 13.0058C11.1378 13.0058 11.2685 12.9797 11.3904 12.9289C11.5122 12.8781 11.6228 12.8037 11.7158 12.71C11.8095 12.617 11.8839 12.5064 11.9347 12.3846C11.9855 12.2627 12.0116 12.132 12.0116 12C12.0116 11.868 11.9855 11.7373 11.9347 11.6154C11.8839 11.4936 11.8095 11.383 11.7158 11.29L7.4158 7Z" fill="#A0A0A0"/>
</svg>
