<svg width="24" height="25" viewBox="0 0 24 25" fill="none" xmlns="http://www.w3.org/2000/svg">
<path d="M2.66412 4.60521L1.33203 7.23678V9.86836V11.842V13.8157L1.99807 16.4473L3.33016 18.421L5.99433 19.7368V23.0263C5.99433 24.6052 7.32641 24.342 7.99245 23.6842L10.6566 20.3947H12.6547H14.6529H17.317C17.8499 20.3947 18.8711 19.9561 19.3152 19.7368L20.6473 18.421L21.9793 17.7631L23.3114 15.7894V13.8157V11.842V9.21047L22.6454 7.89468V5.92099L21.3133 3.94731L20.6473 2.63152L18.6491 1.31573L16.651 0.657837H13.3208H9.32454L5.99433 1.31573L3.9962 2.63152L2.66412 4.60521Z" fill="white"/>
<path d="M21.2935 2.43438C20.6658 1.86316 18.1253 0.0420988 12.461 0.0176878C12.461 0.0176878 5.78343 -0.37777 2.53116 2.57108C0.722142 4.35796 0.0845384 6.9797 0.0153412 10.2264C-0.0538561 13.473 -0.137881 19.5562 5.79825 21.2064H5.8032L5.79825 23.7256C5.79825 23.7256 5.75871 24.746 6.4408 24.9511C7.26128 25.205 7.74566 24.4287 8.53155 23.5938C8.96156 23.1349 9.55468 22.4612 10.0045 21.9485C14.0673 22.2854 17.1861 21.514 17.542 21.4017C18.3625 21.1381 23.0037 20.5522 23.7549 14.469C24.5359 8.19049 23.3793 4.22614 21.2935 2.43438ZM21.9805 14.0101C21.3429 19.0876 17.5816 19.4098 16.8896 19.6295C16.593 19.7222 13.8499 20.396 10.4048 20.1763C10.4048 20.1763 7.83463 23.2374 7.03392 24.0332C6.77196 24.292 6.48529 24.2676 6.49023 23.7549C6.49023 23.4181 6.51 19.5709 6.51 19.5709C6.50506 19.5709 6.50506 19.5709 6.51 19.5709C1.47837 18.1941 1.77493 13.0141 1.8293 10.3045C1.88367 7.59486 2.40265 5.37346 3.93487 3.87951C6.68793 1.414 12.3572 1.78016 12.3572 1.78016C17.1466 1.79969 19.44 3.22529 19.9738 3.70375C21.7383 5.1977 22.6379 8.77147 21.9805 14.0101Z" fill="white"/>
<path d="M14.4724 10.0938C14.4922 10.5136 15.1298 10.4844 15.11 10.0645C15.0408 8.66329 14.2747 7.88214 12.8957 7.80891C12.4756 7.7845 12.4361 8.4143 12.8611 8.43871C13.909 8.4973 14.4181 9.01969 14.4724 10.0938Z" fill="#2A3B45"/>
<path d="M12.3669 6.74459C14.853 6.92523 16.1628 8.54612 16.1134 10.6162C16.1035 11.0312 16.7461 11.0507 16.751 10.6308C16.8054 8.26783 15.2781 6.31984 12.4113 6.11478C11.9912 6.08549 11.9467 6.71529 12.3669 6.74459Z" fill="#2A3B45"/>
<path d="M17.7988 11.2753C17.7988 11.6951 18.4414 11.6903 18.4364 11.2704C18.4018 6.98381 15.4708 4.49878 11.8281 4.47437C11.408 4.47437 11.408 5.09929 11.8281 5.10417C15.0853 5.12858 17.7692 7.29628 17.7988 11.2753Z" fill="#2A3B45"/>
<path d="M17.8779 16.0696V16.0598C18.1152 15.6107 18.0361 15.1859 17.6901 14.9076C17.0772 14.3364 16.1529 13.7066 15.4264 13.3014C14.8876 13.0036 14.339 13.1891 14.1116 13.482L13.6371 14.0679C13.3949 14.3657 12.9452 14.3266 12.9452 14.3266C9.65828 13.4967 8.77849 10.2109 8.77849 10.2109C8.77849 10.2109 8.73894 9.76667 9.04045 9.52744L9.63357 9.05875C9.93013 8.83417 10.1179 8.29225 9.81644 7.76009C9.64345 7.46227 9.31229 6.93011 9.06516 6.59812C8.8032 6.24172 8.19031 5.51916 8.19031 5.51916C7.89869 5.17252 7.46374 5.0944 7.00901 5.32875H6.99913C6.05508 5.85603 5.02206 6.84223 5.35322 7.85773C5.35322 7.85773 5.58553 8.69747 6.63831 10.5771C7.13752 11.4754 7.65156 12.2224 8.16065 12.8522C8.72412 13.5601 9.45563 14.2973 10.2563 14.9223C11.8083 16.1428 14.2648 17.3927 15.3077 17.6807L15.3176 17.6954C16.3457 18.0225 17.3441 16.9972 17.8779 16.0696Z" fill="#2A3B45"/>
</svg>
