<svg width="24" height="24" viewBox="0 0 24 24" fill="none" xmlns="http://www.w3.org/2000/svg">
<path d="M11.9975 0C5.38146 0 0 5.38264 0 11.9997C0 14.6238 0.846415 17.0578 2.28524 19.0333L0.789682 23.4921L5.40057 22.0178C7.29764 23.2735 9.56198 24 12.0025 24C18.6185 24 24 18.6172 24 12.0003C24 5.38344 18.6183 0.000596969 12.0025 0.000596969H11.9955L11.9975 0Z" fill="white"/>
<path d="M8.56427 5.65116C8.34256 5.06115 8.1615 5.0397 7.81417 5.01588L7.41806 5C6.96726 5 6.49429 5.14294 6.20903 5.45502C5.86169 5.83619 5 6.72399 5 8.54565C5 10.3673 6.23637 12.1286 6.40413 12.3756C6.5778 12.6138 8.81479 16.4144 12.2889 17.9597C15.0055 19.1691 15.811 19.0571 16.4296 18.915C17.3327 18.7061 18.4648 17.9891 18.7501 17.1235C19.0354 16.2579 19.0354 15.5194 18.9511 15.3606C18.8669 15.2018 18.6385 15.1224 18.2912 14.9278C17.9438 14.7333 16.2559 13.8455 15.9359 13.7255C15.6233 13.5985 15.3248 13.6438 15.0883 14.0019C14.7557 14.5022 14.4283 15.0104 14.1645 15.3153C13.9561 15.5536 13.6154 15.5853 13.3309 15.4583C12.9488 15.2867 11.8787 14.8833 10.5596 13.6215C9.53829 12.6448 8.84361 11.4266 8.64186 11.0613C8.44011 10.6881 8.62117 10.4713 8.7808 10.2696C8.95447 10.0378 9.12075 9.87417 9.29515 9.65818C9.46956 9.44218 9.56637 9.32942 9.67722 9.0761C9.79547 8.83787 9.71196 8.57582 9.62845 8.38921C9.54494 8.2026 8.85027 6.38014 8.56574 5.64163L8.56427 5.65116Z" fill="#2A3B45"/>
</svg>
